#!OML:ASF H:\LiuWeirdWalks\Patient Classification 1\Patient 1\Session 1\male.ASF
:FULLY-SPECIFIED
:DEGREES
195
root -0.633928 17.3353 -24.8481 3.42548 17.5318 -6.46214
lowerback 5.14851 12.7967 7.74548
upperback -2.32577 17.5963 -0.889967
thorax -2.70622 8.60598 -5.92128
lowerneck -18.8014 -7.76293 -6.09468
upperneck 27.1394 -9.54012 1.88521
head 12.5218 -4.55195 0.179532
rclavicle -1.33751e-013 5.39203e-015
rhumerus -10.07 11.5154 -84.8172
rradius 41.5518
rwrist -8.42791
rhand -16.9158 1.80141
rfingers 7.12502
rthumb 9.31656 -27.9727
lclavicle -1.33751e-013 5.39203e-015
lhumerus -57.6767 21.889 37.4348
lradius 43.5705
lwrist 15.0668
lhand -16.0882 3.29012
lfingers 7.12502
lthumb 10.115 33.027
rfemur 20.1751 -13.1348 32.2153
rtibia -6.04305e-014
rfoot -12.0846 -24.9947
rtoes -10.039
lfemur -40.9289 -10.4513 -11.3166
ltibia 28.9073
lfoot -9.88137 3.27689
ltoes -17.4843
196
root -0.5997 17.3143 -24.7205 3.56779 17.4398 -6.35345
lowerback 5.03433 12.9219 7.77542
upperback -2.39026 17.7534 -1.0499
thorax -2.62987 8.68714 -6.06383
lowerneck -18.6152 -8.02469 -6.28268
upperneck 26.9609 -9.90373 2.01611
head 12.4495 -4.72036 0.205212
rclavicle 2.86992e-013 9.93923e-015
rhumerus -9.72514 12.2245 -85.079
rradius 41.9034
rwrist -7.97123
rhand -16.5969 2.08394
rfingers 7.12502
rthumb 9.62431 -27.6762
lclavicle 2.86992e-013 9.93923e-015
lhumerus -58.3585 22.4479 36.131
lradius 43.5281
lwrist 14.5817
lhand -15.8784 3.4857
lfingers 7.12502
lthumb 10.3175 33.2126
rfemur 20.5557 -12.9836 32.0164
rtibia -2.22639e-014
rfoot -12.04 -24.9314
rtoes -10.5531
lfemur -40.8295 -10.5906 -11.3969
ltibia 29.4592
lfoot -9.44653 3.36758
ltoes -17.5261
197
root -0.564295 17.3001 -24.5898 3.73228 17.3567 -6.15347
lowerback 4.9097 13.0325 7.71683
upperback -2.43973 17.8832 -1.22208
thorax -2.55668 8.75693 -6.17348
lowerneck -18.5345 -8.3135 -6.6083
upperneck 26.9324 -10.2969 2.26523
head 12.4785 -4.89578 0.284216
rclavicle -9.88208e-014 4.27387e-015
rhumerus -9.41388 12.9937 -85.3175
rradius 42.2663
rwrist -7.5454
rhand -16.3466 2.41655
rfingers 7.12502
rthumb 9.86582 -27.3323
lclavicle -9.88208e-014 4.27387e-015
lhumerus -59.0409 23.0603 34.8165
lradius 43.4824
lwrist 14.0357
lhand -15.6685 3.65675
lfingers 7.12502
lthumb 10.5199 33.3735
rfemur 20.9452 -12.8443 31.7175
rtibia 1.27222e-014
rfoot -11.9435 -24.8682
rtoes -11.0801
lfemur -40.7692 -10.6 -11.6674
ltibia 29.9975
lfoot -8.71678 3.39679
ltoes -17.5326
198
root -0.529581 17.2927 -24.4574 3.89864 17.2778 -5.9177
lowerback 4.80979 13.1268 7.61322
upperback -2.48148 17.9905 -1.39231
thorax -2.50539 8.81534 -6.26678
lowerneck -18.4143 -8.54301 -6.84694
upperneck 26.8136 -10.6224 2.48001
head 12.454 -5.03941 0.351295
rclavicle 7.63457e-014 1.95803e-014
rhumerus -9.12823 13.7869 -85.5368
rradius 42.6247
rwrist -7.16493
rhand -16.0776 2.76281
rfingers 7.12502
rthumb 10.1253 -26.9736
lclavicle 7.63457e-014 1.95803e-014
lhumerus -59.7318 23.7661 33.4639
lradius 43.4237
lwrist 13.3815
lhand -15.3777 3.7601
lfingers 7.12502
lthumb 10.8004 33.4624
rfemur 21.3353 -12.7139 31.3847
rtibia 3.18055e-015
rfoot -11.7802 -24.8037
rtoes -11.5957
lfemur -40.7626 -10.4704 -12.0532
ltibia 30.5185
lfoot -7.67818 3.38193
ltoes -17.4872
199
root -0.495448 17.2907 -24.3236 4.06332 17.2348 -5.6469
lowerback 4.7313 13.197 7.4781
upperback -2.50631 18.065 -1.56276
thorax -2.46173 8.85798 -6.35008
lowerneck -18.1779 -8.69765 -6.97836
upperneck 26.5129 -10.8637 2.65693
head 12.3209 -5.14575 0.410246
rclavicle 1.1463e-013 3.21037e-014
rhumerus -8.85062 14.5631 -85.7319
rradius 42.9599
rwrist -6.79176
rhand -15.8875 3.11173
rfingers 7.12502
rthumb 10.3087 -26.6156
lclavicle 1.1463e-013 3.21037e-014
lhumerus -60.403 24.5429 32.1168
lradius 43.3618
lwrist 12.7286
lhand -15.071 3.80381
lfingers 7.12502
lthumb 11.0963 33.4905
rfemur 21.7312 -12.6233 31.0194
rtibia -5.725e-014
rfoot -11.5539 -24.7321
rtoes -12.0846
lfemur -40.8034 -10.2685 -12.5275
ltibia 31.0292
lfoot -6.36732 3.39553
ltoes -17.4139
200
root -0.461739 17.292 -24.1887 4.22535 17.2329 -5.35134
lowerback 4.65568 13.2377 7.31597
upperback -2.5075 18.0983 -1.7205
thorax -2.4128 8.88144 -6.40748
lowerneck -17.9211 -8.80545 -7.04981
upperneck 26.1202 -11.0378 2.78153
head 12.1375 -5.22596 0.454679
rclavicle -1.26408e-013 -2.17669e-014
rhumerus -8.57495 15.3069 -85.897
rradius 43.2612
rwrist -6.37456
rhand -15.7689 3.42893
rfingers 7.12502
rthumb 10.4231 -26.2927
lclavicle -1.26408e-013 -2.17669e-014
lhumerus -61.0649 25.3845 30.7981
lradius 43.2948
lwrist 12.1132
lhand -14.788 3.80672
lfingers 7.12502
lthumb 11.3692 33.4785
rfemur 22.1297 -12.577 30.6343
rtibia 4.13472e-014
rfoot -11.2542 -24.6638
rtoes -12.5407
lfemur -40.864 -10.0244 -13.0601
ltibia 31.5492
lfoot -4.89787 3.53241
ltoes -17.4058
201
root -0.427326 17.2941 -24.0523 4.37308 17.2529 -5.0843
lowerback 4.57915 13.2672 7.19405
upperback -2.50009 18.1195 -1.87211
thorax -2.3464 8.8992 -6.47545
lowerneck -17.6463 -8.89636 -7.11443
upperneck 25.6924 -11.1901 2.91066
head 11.9375 -5.29658 0.504948
rclavicle 1.0394e-013 7.55382e-015
rhumerus -8.33811 15.9545 -86.0593
rradius 43.5461
rwrist -5.96131
rhand -15.738 3.67271
rfingers 7.12502
rthumb 10.4529 -26.0474
lclavicle 1.0394e-013 7.55382e-015
lhumerus -61.6712 26.2482 29.5278
lradius 43.2231
lwrist 11.5703
lhand -14.605 3.82466
lfingers 7.12502
lthumb 11.5457 33.4867
rfemur 22.529 -12.5526 30.2809
rtibia 0
rfoot -10.8626 -24.6023
rtoes -12.9671
lfemur -40.9167 -9.77156 -13.5675
ltibia 32.1024
lfoot -3.43501 3.8434
ltoes -17.3703
202
root -0.392239 17.2957 -23.9156 4.5007 17.2746 -4.88305
lowerback 4.50816 13.2951 7.1457
upperback -2.49088 18.1445 -2.00703
thorax -2.26446 8.91822 -6.56096
lowerneck -17.3358 -8.97952 -7.13916
upperneck 25.2066 -11.3337 3.00984
head 11.7049 -5.36552 0.54234
rclavicle -9.28324e-014 -1.33186e-014
rhumerus -8.13204 16.5059 -86.1963
rradius 43.7913
rwrist -5.4772
rhand -15.7797 3.83699
rfingers 7.12502
rthumb 10.4126 -25.8852
lclavicle -9.28324e-014 -1.33186e-014
lhumerus -62.1941 27.0585 28.3759
lradius 43.1497
lwrist 11.1473
lhand -14.5278 3.85663
lfingers 7.12502
lthumb 11.6202 33.5144
rfemur 22.9198 -12.5274 29.9986
rtibia 3.18055e-015
rfoot -10.3577 -24.5471
rtoes -13.3567
lfemur -40.946 -9.48094 -14.0125
ltibia 32.7053
lfoot -2.16243 4.21462
ltoes -17.2593
203
root -0.355105 17.297 -23.7779 4.59297 17.2844 -4.76838
lowerback 4.43292 13.3193 7.1914
upperback -2.48091 18.171 -2.11241
thorax -2.16118 8.93731 -6.65842
lowerneck -17.21 -9.1313 -7.32671
upperneck 24.9974 -11.5535 3.20758
head 11.6398 -5.4629 0.614509
rclavicle 1.21457e-013 -1.11319e-014
rhumerus -7.96917 17.0055 -86.3128
rradius 44.004
rwrist -5.03243
rhand -15.8607 3.95365
rfingers 7.12502
rthumb 10.3346 -25.7724
lclavicle 1.21457e-013 -1.11319e-014
lhumerus -62.6527 27.8101 27.3535
lradius 43.0833
lwrist 10.8785
lhand -14.5949 3.92873
lfingers 7.12502
lthumb 11.5554 33.5902
rfemur 23.3156 -12.4862 29.7963
rtibia 9.54166e-015
rfoot -9.74318 -24.4815
rtoes -13.6832
lfemur -40.9323 -9.1418 -14.3826
ltibia 33.363
lfoot -1.2458 4.50059
ltoes -16.9102
204
root -0.315609 17.2992 -23.64 4.66303 17.2766 -4.72799
lowerback 4.3643 13.3445 7.32531
upperback -2.48775 18.2061 -2.20005
thorax -2.05761 8.95873 -6.78206
lowerneck -17.1207 -9.29236 -7.51109
upperneck 24.8846 -11.7888 3.40504
head 11.6206 -5.56452 0.679967
rclavicle 1.81888e-013 -2.00773e-014
rhumerus -7.8847 17.4449 -86.428
rradius 44.201
rwrist -4.65384
rhand -15.9418 3.99196
rfingers 7.12502
rthumb 10.2563 -25.738
lclavicle 1.81888e-013 -2.00773e-014
lhumerus -63.0447 28.4917 26.4575
lradius 43.021
lwrist 10.6599
lhand -14.7536 4.02048
lfingers 7.12502
lthumb 11.4024 33.6904
rfemur 23.7009 -12.4209 29.6586
rtibia -1.59028e-014
rfoot -8.96981 -24.3904
rtoes -13.9761
lfemur -40.8829 -8.76175 -14.6884
ltibia 34.0612
lfoot -0.766521 4.58994
ltoes -16.2601
205
root -0.273286 17.3031 -23.5009 4.70038 17.2438 -4.72142
lowerback 4.30367 13.3661 7.49685
upperback -2.49939 18.24 -2.26417
thorax -1.96009 8.97835 -6.9028
lowerneck -17.0485 -9.45215 -7.69239
upperneck 24.8482 -12.0243 3.59825
head 11.6346 -5.66464 0.741101
rclavicle -5.31749e-015 2.28602e-014
rhumerus -7.85966 17.8648 -86.5262
rradius 44.358
rwrist -4.34207
rhand -15.9938 4.01377
rfingers 7.12502
rthumb 10.2062 -25.7187
lclavicle -5.31749e-015 2.28602e-014
lhumerus -63.3817 29.0714 25.7247
lradius 42.9865
lwrist 10.5831
lhand -14.9451 4.1102
lfingers 7.12502
lthumb 11.2177 33.7903
rfemur 24.1077 -12.3286 29.5322
rtibia 6.36111e-015
rfoot -8.0603 -24.2507
rtoes -14.2092
lfemur -40.7675 -8.36213 -14.9706
ltibia 34.7699
lfoot -0.691224 4.49979
ltoes -15.3263
206
root -0.229366 17.31 -23.3612 4.70523 17.1748 -4.73489
lowerback 4.24656 13.3697 7.66793
upperback -2.5038 18.2503 -2.28936
thorax -1.87342 8.98555 -6.98707
lowerneck -16.987 -9.57395 -7.82891
upperneck 24.8364 -12.2004 3.72652
head 11.6491 -5.7416 0.781011
rclavicle 1.51946e-013 1.39149e-015
rhumerus -7.8709 18.2947 -86.6147
rradius 44.461
rwrist -4.05484
rhand -15.9965 4.02992
rfingers 7.12502
rthumb 10.2035 -25.7026
lclavicle 1.51946e-013 1.39149e-015
lhumerus -63.7421 29.6065 25.1031
lradius 42.9776
lwrist 10.4691
lhand -15.112 4.17603
lfingers 7.12502
lthumb 11.0567 33.8648
rfemur 24.5348 -12.2003 29.4055
rtibia -6.04305e-014
rfoot -7.01727 -24.0472
rtoes -14.3674
lfemur -40.5794 -7.96255 -15.2242
ltibia 35.4524
lfoot -0.884968 4.32507
ltoes -14.1237
207
root -0.184349 17.3207 -23.2206 4.68844 17.0732 -4.72413
lowerback 4.20492 13.3589 7.79845
upperback -2.51075 18.2406 -2.29963
thorax -1.81798 8.98153 -7.04495
lowerneck -16.8564 -9.66682 -7.92821
upperneck 24.8063 -12.3386 3.81454
head 11.6353 -5.80511 0.810767
rclavicle -1.28974e-013 3.97569e-016
rhumerus -7.93124 18.7128 -86.7111
rradius 44.5102
rwrist -3.79999
rhand -15.934 4.04099
rfingers 7.12502
rthumb 10.2638 -25.6886
lclavicle -1.28974e-013 3.97569e-016
lhumerus -64.0934 30.0672 24.6041
lradius 42.997
lwrist 10.3227
lhand -15.2407 4.1963
lfingers 7.12502
lthumb 10.9325 33.8917
rfemur 24.9851 -12.0427 29.2342
rtibia 8.26944e-014
rfoot -5.86337 -23.7791
rtoes -14.3874
lfemur -40.309 -7.5885 -15.4864
ltibia 36.0725
lfoot -1.21084 4.13744
ltoes -12.8189
208
root -0.139323 17.3351 -23.0797 4.65029 16.9401 -4.67859
lowerback 4.17761 13.3306 7.86942
upperback -2.50746 18.205 -2.29178
thorax -1.78735 8.96423 -7.0629
lowerneck -16.7235 -9.74278 -7.9917
upperneck 24.7767 -12.4406 3.82312
head 11.6104 -5.8593 0.81281
rclavicle 1.82546e-013 1.98785e-015
rhumerus -8.01402 19.1102 -86.8008
rradius 44.5021
rwrist -3.52389
rhand -15.7984 4.06627
rfingers 7.12502
rthumb 10.3946 -25.6568
lclavicle 1.82546e-013 1.98785e-015
lhumerus -64.4236 30.452 24.2539
lradius 43.0387
lwrist 10.1556
lhand -15.3461 4.1691
lfingers 7.12502
lthumb 10.8309 33.8698
rfemur 25.4568 -11.8588 29.0137
rtibia -2.8625e-014
rfoot -4.58503 -23.4539
rtoes -14.3383
lfemur -39.9443 -7.24358 -15.7608
ltibia 36.6036
lfoot -1.54414 4.04271
ltoes -11.602
